<svg id="Layer_1" data-name="Layer 1" xmlns="http://www.w3.org/2000/svg" viewBox="0 0 88.6 88.6">
  <defs>
    <style>
      .cls-1-archery {
        fill: #8CC63F;
      }

      .cls-2-archery {
        fill: #fff;
      }
    </style>
  </defs>
  <circle class="cls-1-archery" cx="44.3" cy="44.3" r="44.3"/>
  <path class="cls-2-archery" d="M117.94,138.67c-1.47-1.52-2.92-3.07-4.42-4.57L96.65,117.22a5.82,5.82,0,0,1-.4-.5c-.9.9-1.72,1.71-2.53,2.54a.7.7,0,0,0-.09.46c.05.78.13,1.56.19,2.33a.64.64,0,0,1-.08.42c-.82.83-1.66,1.66-2.56,2.55l-.26-2.87a.71.71,0,0,0-.48.81c.09.74.16,1.48.19,2.23a.93.93,0,0,1-.21.6c-.6.64-1.23,1.25-1.93,2l-.26-2.92c-.37.22-.6.42-.52.89.11.76.16,1.52.21,2.28a.61.61,0,0,1-.11.4c-.83.86-1.68,1.7-2.6,2.63l-.16-1.66c0-.51-.09-1-.11-1.54,0-.36-.15-.51-.54-.52-1,0-2-.12-3.1-.19.22-.23.37-.39.53-.54a17.08,17.08,0,0,0,1.46-1.49,1.72,1.72,0,0,1,1.82-.66c.46.07.93,0,1.39.11s.68-.12.92-.5l-2.86-.22c.76-.75,1.43-1.43,2.13-2.08a.85.85,0,0,1,.56-.09c.66,0,1.32.09,2,.17a.79.79,0,0,0,.88-.48l-2.81-.22c.9-.89,1.73-1.74,2.58-2.57a.77.77,0,0,1,.51-.06l2.13.14a.69.69,0,0,0,.46-.1c.83-.8,1.65-1.63,2.49-2.47l-.4-.42L74.81,95.39c-.28-.28-.61-.52-.91-.77s-.43-.57-.15-.91a.57.57,0,0,1,.88-.07,5,5,0,0,0,4.9.79c2.43-.74,4.81-1.65,7.19-2.55a44.49,44.49,0,0,1,7.73-2.36,16.65,16.65,0,0,1,12.81,2.55,49.43,49.43,0,0,1,6.59,5.39L120,91.27l-2.75-.2a5.29,5.29,0,0,1,2.35-1.73c1.68-.5,3.32-1.12,5-1.69v.1a1.64,1.64,0,0,0-.16.29c-.6,1.67-1.22,3.32-1.79,5-.28.81-1,1.19-1.55,1.88L121,92.16l-6.2,6.2c0,.06.13.16.22.25a52.3,52.3,0,0,1,5,6.09A16.09,16.09,0,0,1,122.66,118a56.36,56.36,0,0,1-3.06,9,28.63,28.63,0,0,0-2.1,6.45,4.57,4.57,0,0,0,1,4c.45.49.44.72,0,1.21Zm-41-42.74L96.17,115.2q7.58-7.59,15.29-15.29c-1-.9-2-1.86-3.13-2.76a23.63,23.63,0,0,0-7-4.38,18.83,18.83,0,0,0-8.22-1.07,27.92,27.92,0,0,0-7.23,1.88C82.93,94.67,80.11,96.1,76.9,95.93ZM97.07,116l19.09,19.09a12.66,12.66,0,0,1,.88-4.84c.42-1.17.87-2.33,1.32-3.49a29.36,29.36,0,0,0,2.2-7.91,17.15,17.15,0,0,0-1.59-9.23,29.94,29.94,0,0,0-4.78-6.77c-.62-.72-1.29-1.41-1.9-2.07Z" transform="translate(-54.81 -68.86)"/>
</svg>
