<svg id="Layer_1" data-name="Layer 1" xmlns="http://www.w3.org/2000/svg" viewBox="0 0 86.13 86.15">
  <defs>
    <style>
      .cls-1 {
        fill: #ed1c24;
      }
    </style>
  </defs>
  <path class="cls-1" d="M132,99.16a39.95,39.95,0,1,1-.46-6.19,38.91,38.91,0,0,1,.46,6.19,1.5,1.5,0,0,0,3,0A43.09,43.09,0,0,0,58.64,71.71a43.1,43.1,0,1,0,75.82,34.09,44.89,44.89,0,0,0,.51-6.64A1.5,1.5,0,0,0,132,99.16Z" transform="translate(-48.84 -56.08)"/>
  <g>
    <path class="cls-1" d="M80.4,134.44c-.26-.11-.52-.2-.77-.32a3.45,3.45,0,0,1-1.94-3.44q.12-8.19.23-16.39c0-1.94,0-3.89,0-5.83v-.75H90.78a.45.45,0,0,1,.07.18c-.08,3.58.85,7,1.56,10.47a57,57,0,0,0,3.65,11.45A3.24,3.24,0,0,1,94.35,134,3.33,3.33,0,0,1,90,132.41c-.38-.83-.73-1.68-1-2.54a106.48,106.48,0,0,1-3.55-14.42c-.24-1.17-.46-2.34-.68-3.51h-.23c0,1.39,0,2.77,0,4.15,0,4.68-.13,9.36-.07,14,0,2.1-.61,3.6-2.69,4.31Z" transform="translate(-48.84 -56.08)"/>
    <path class="cls-1" d="M111.55,82.26c-1.19-5.81-3.25-11-9-13.89,0-.13.07-.32.12-.5s.12-.37.19-.59a12,12,0,0,1,4.44,3,20,20,0,0,1,4.8,9c.21.8.39,1.61.53,2.43.08.41.22.59.67.58,1.33,0,2.66,0,4.07,0V80.15L120.58,83l-3.15,2.78V83.66H113c.2,1.86.4,3.67.59,5.48a5.91,5.91,0,0,1,0,1.11c-.2,1.64-.42,3.28-.64,4.92a27.63,27.63,0,0,1-3.82,11.33,15.68,15.68,0,0,1-5.41,5.42l-.73.4c-.1-.21-.19-.38-.26-.55s-.12-.32-.19-.5c.72-.51,1.46-1,2.12-1.52a18.7,18.7,0,0,0,5.38-7.87A31.42,31.42,0,0,0,112,92.66a96.55,96.55,0,0,1-10.06.18c-3.37,0-6.73,0-10.1,0h-.91v13.31h-13V95.58c-1.41.32-2.32-.4-3.22-1.21a19.53,19.53,0,0,1-4-4.61c-2-3.33-1.12-6.69,2.16-8.69a16.37,16.37,0,0,1,5.25-2,2.7,2.7,0,0,1,3.3,2,2.77,2.77,0,0,1-2,3.28,30.67,30.67,0,0,0-3.27,1.11c-1.14.49-1.23.82-.47,1.8s1.84,2.09,2.81,3.17c.17-.19.26-.25.3-.34a6.46,6.46,0,0,1,5.85-3.36c8.6,0,17.19,0,25.78,0a12.71,12.71,0,0,1,1.7.23l-.29-3.41H89.62c-.47,0-.79.07-1,.56a.63.63,0,0,1-.5.27c-1,0-2,0-3,0,.27-.52.71-1,.71-1.44s-.44-1-.74-1.55c1.14,0,2.2,0,3.25,0,.15,0,.34.19.41.34a.77.77,0,0,0,.82.49h21.38C111.11,82.3,111.28,82.28,111.55,82.26Z" transform="translate(-48.84 -56.08)"/>
    <path class="cls-1" d="M80.35,85.26C82.52,84,83.29,82.71,83,81s-1.48-2.77-4-3.2a5,5,0,0,1,5.48-1.92,5.15,5.15,0,0,1,3.81,5H83.57c.35.66.63,1.22,1,1.75a.74.74,0,0,1,0,.94c-.34.5-.63,1-1,1.65h2.22A4.77,4.77,0,0,1,80.35,85.26Z" transform="translate(-48.84 -56.08)"/>
  </g>
</svg>
