<svg id="Layer_1" data-name="Layer 1" xmlns="http://www.w3.org/2000/svg" viewBox="0 0 76.59 84.83">
  <defs>
    <style>
      .cls-1 {
        fill: #7ac943;
      }
    </style>
  </defs>
  <g>
    <path class="cls-1" d="M111.26,145.93H61.57a2.36,2.36,0,0,1-1.35-2.49c.07-1.18,0-2.37,0-3.56a5.48,5.48,0,0,1,2.15-4.45A1.61,1.61,0,0,0,63,134q0-31,0-62c0-.38,0-.77,0-1.16A10,10,0,0,1,73,61.12c8.75,0,17.5,0,26.25,0a9.74,9.74,0,0,1,8.48,4.78,10.63,10.63,0,0,1,1.51,5.92c0,5.58,0,11.16,0,16.73,0,.39-.12.8.49,1a10.69,10.69,0,0,1,7.23,6.41,34.59,34.59,0,0,1,2.39,19.25,45.12,45.12,0,0,0-.4,12.28,11.91,11.91,0,0,0,1.76,5.11c1.9,2.87,8,3.07,9.76-.85a15.78,15.78,0,0,0,1.21-5.78,71.13,71.13,0,0,0-1.24-13.82,90.23,90.23,0,0,1-1.21-16.81,1.71,1.71,0,0,0-.49-1c-1.18-1.35-2.51-2.58-3.57-4-2.1-2.85-3.12-6-2-9.56A30.87,30.87,0,0,1,124.82,77,25,25,0,0,0,115.74,73a1.87,1.87,0,0,1,.58-3.7,12.28,12.28,0,0,1,2.34.47,33.8,33.8,0,0,1,10,5.31A23.53,23.53,0,0,1,135.23,82c2.44,4.16,2.19,9.91-1.89,12.93a1,1,0,0,0-.33.68c.12,3.42.1,6.85.43,10.25.45,4.57,1.23,9.12,1.76,13.69A32.72,32.72,0,0,1,135,130c-1,4.53-3.46,7.94-8.37,8.37-3.19.28-6.11-.3-8.37-2.81a11.9,11.9,0,0,1-2.61-5.37c-1.07-4.5-.78-9-.28-13.58a40.47,40.47,0,0,0,.66-5.32,72.05,72.05,0,0,0-.78-8.55,15,15,0,0,0-2.65-6.87,6.79,6.79,0,0,0-3.31-2.55c0,.38,0,.62,0,.87q0,19.83,0,39.67a1.18,1.18,0,0,0,.6,1.13,5.51,5.51,0,0,1,2.67,4.84c0,1.14-.07,2.27,0,3.4A2.61,2.61,0,0,1,111.26,145.93Zm-25-76.16H75.63a4.17,4.17,0,0,0-4.45,4.44V87.62a4.17,4.17,0,0,0,4.44,4.46q10.68,0,21.35,0a4.15,4.15,0,0,0,4.47-4.27q.09-6.84,0-13.66a4.16,4.16,0,0,0-4.54-4.38Zm-13.5,55.29.32.16c.28-.33.56-.67.85-1,.82-.93,1.62-1.88,2.5-2.76a1.54,1.54,0,0,1,1.08-.33,59.31,59.31,0,0,0,6.5.38c5.26-.32,9.18-2.81,11.36-7.75A22.84,22.84,0,0,0,97.16,105c0-1.61-.07-3.23-.11-4.9l-2.92.81c-3.35.88-6.75,1.62-10,2.67A11.55,11.55,0,0,0,76.57,110a15.45,15.45,0,0,0-1.15,8,5,5,0,0,1-1.08,4.14A15.15,15.15,0,0,0,72.81,125.06Zm35.87,17.05c0-.85,0-1.62,0-2.38a1.66,1.66,0,0,0-1.7-1.66H65.8a1.64,1.64,0,0,0-1.72,1.46c-.08.84,0,1.69,0,2.58Zm22.68-50.53a5.23,5.23,0,0,0,1.52-5.15c-.38-2.43-1.91-4.21-3.6-5.86-.4-.4-.84-.75-1.28-1.15a6.29,6.29,0,0,0-1.07,6.33A16,16,0,0,0,131.36,91.58Z" transform="translate(-60.21 -61.1)"/>
    <path class="cls-1" d="M93.8,104.47a20.75,20.75,0,0,1-6.9,8.13c-2.64,1.73-5.36,3.35-8.2,4.91.39-.65.76-1.32,1.2-1.94,1.83-2.59,4.37-4.39,6.93-6.17C89.2,107.75,91.55,106.07,93.8,104.47Z" transform="translate(-60.21 -61.1)"/>
  </g>
</svg>
