<svg id="Layer_1" data-name="Layer 1" xmlns="http://www.w3.org/2000/svg" viewBox="0 0 140.35 97.62">
  <defs>
    <style>
      .cls-1 {
        fill: #3fa9f5;
      }
    </style>
  </defs>
  <g id="Bubble_5" data-name="Bubble 5">
    <path class="cls-1" d="M53.81,136a17.51,17.51,0,1,1,17.51-17.51A17.52,17.52,0,0,1,53.81,136Z" transform="translate(-35.3 -46.59)"/>
    <path d="M53.81,102A16.51,16.51,0,1,1,37.3,118.51,16.53,16.53,0,0,1,53.81,102m0-2a18.51,18.51,0,1,0,18.51,18.51A18.51,18.51,0,0,0,53.81,100Z" transform="translate(-35.3 -46.59)"/>
  </g>
  <g id="Bubble_3" data-name="Bubble 3">
    <path class="cls-1" d="M108,90.76a8.26,8.26,0,1,1,8.25-8.26A8.27,8.27,0,0,1,108,90.76Z" transform="translate(-35.3 -46.59)"/>
    <path d="M108,75.24a7.26,7.26,0,1,1-7.26,7.26A7.26,7.26,0,0,1,108,75.24m0-2a9.26,9.26,0,1,0,9.25,9.26A9.26,9.26,0,0,0,108,73.24Z" transform="translate(-35.3 -46.59)"/>
  </g>
  <g id="Bubble_7" data-name="Bubble 7">
    <circle class="cls-1" cx="76.31" cy="84.77" r="11.85"/>
    <path d="M111.61,120.51a10.85,10.85,0,1,1-10.85,10.85,10.86,10.86,0,0,1,10.85-10.85m0-2a12.85,12.85,0,1,0,12.84,12.85,12.85,12.85,0,0,0-12.84-12.85Z" transform="translate(-35.3 -46.59)"/>
  </g>
  <g id="Bubble_1" data-name="Bubble 1">
    <path class="cls-1" d="M74.12,77.17a14.79,14.79,0,1,1,14.8-14.79A14.81,14.81,0,0,1,74.12,77.17Z" transform="translate(-35.3 -46.59)"/>
    <path d="M74.12,48.59A13.79,13.79,0,1,1,60.33,62.38,13.8,13.8,0,0,1,74.12,48.59m0-2A15.79,15.79,0,1,0,89.91,62.38,15.79,15.79,0,0,0,74.12,46.59Z" transform="translate(-35.3 -46.59)"/>
  </g>
  <g id="Bubble_2" data-name="Bubble 2">
    <path class="cls-1" d="M146,90.76a12.59,12.59,0,1,1,12.58-12.59A12.61,12.61,0,0,1,146,90.76Z" transform="translate(-35.3 -46.59)"/>
    <path d="M146,66.59a11.59,11.59,0,1,1-11.59,11.58A11.59,11.59,0,0,1,146,66.59m0-2a13.59,13.59,0,1,0,13.58,13.58A13.59,13.59,0,0,0,146,64.59Z" transform="translate(-35.3 -46.59)"/>
  </g>
  <g id="Bubble_6" data-name="Bubble 6">
    <path class="cls-1" d="M151.9,141a22.75,22.75,0,1,1,22.75-22.75A22.77,22.77,0,0,1,151.9,141Z" transform="translate(-35.3 -46.59)"/>
    <path d="M151.9,96.5a21.75,21.75,0,1,1-21.74,21.74A21.77,21.77,0,0,1,151.9,96.5m0-2a23.75,23.75,0,1,0,23.75,23.74A23.74,23.74,0,0,0,151.9,94.5Z" transform="translate(-35.3 -46.59)"/>
  </g>
  <g id="Bubble_4" data-name="Bubble 4">
    <path class="cls-1" d="M85.54,110.42A10.59,10.59,0,1,1,96.13,99.83,10.6,10.6,0,0,1,85.54,110.42Z" transform="translate(-35.3 -46.59)"/>
    <path d="M85.54,90.24A9.59,9.59,0,1,1,76,99.83a9.6,9.6,0,0,1,9.59-9.59m0-2A11.59,11.59,0,1,0,97.13,99.83,11.59,11.59,0,0,0,85.54,88.24Z" transform="translate(-35.3 -46.59)"/>
  </g>
</svg>
