<svg id="auto" class="svg--auto" xmlns="http://www.w3.org/2000/svg" viewBox="0 0 144.44 72.32">
  <defs>
    <style>
      .cls-carroserie {
        fill: red;
      }

      .cls-wielen {
        fill: #cf1c24;
      }

      .cls-raam {
        fill: white;
      }

      .cls-prieze {
        fill: none;
        stroke: #000;
        stroke-miterlimit: 10;
      }
    </style>
  </defs>
  <g class="svg--auto-carroserie">
    <path id="carroserie" class="cls-carroserie" d="M150.07,74.79c-3.42-.68-7.54-.87-13.08-1.62-.49-.07-1.58-.21-3-.54a37.6,37.6,0,0,1-4-1.21c-7.48-2.65-11-6.73-24.64-10.21-.65-.16-1.86-.48-3.54-.86A84.93,84.93,0,0,0,90,58.58a58.44,58.44,0,0,0-15.57.47c-6.82,1.27-12.47,4.85-23.76,12a54.35,54.35,0,0,0-12,10.07c-.26.3-.4.46-.54.64-4,5.07-2.86,13.58-.42,17.34,1.36,2.08,3.39,3.1,7.07,3.57a12.94,12.94,0,0,1-.14-1.77,13.14,13.14,0,1,1,26.28,0,13.53,13.53,0,0,1-.14,1.81h.75c12.57-.18,25.14,0,37.71,0,7.09,0,11.82,0,15,0a13.38,13.38,0,0,1-.14-1.8,13.14,13.14,0,1,1,26.28,0c0,.23,0,.47,0,.7a13.43,13.43,0,0,0,13.36-8.36c2.15-5.67-.48-11.53-3.7-14.36C157.15,76.35,153.91,75.57,150.07,74.79Z" transform="translate(-20.07 -38.7)"/>
    <path id="raam" class="cls-raam" d="M62.84,76.19c0-7.47,10.51-13.52,23.49-13.52s23.49,6,23.49,13.52" transform="translate(-20.07 -38.7)"/>
  </g>
  
  <g class="svg--auto-wielen" id="wielen">
    <circle id="wiel_1" data-name="wiel 1" class="cls-wielen" cx="116.98" cy="62.2" r="10.12"/>
    <circle id="wiel_2" data-name="wiel 2" class="cls-wielen" cx="37.36" cy="62.01" r="10.12"/>
  </g>
  
  <g id="prieze">
    <g>
      <path class="cls-prieze" d="M20.57,75.47a14.93,14.93,0,0,0,14.92,15" transform="translate(-20.07 -38.7)"/>
      <path class="cls-prieze" d="M20.57,75.47c0-15.78,22.12-28.56,49.45-28.56" transform="translate(-20.07 -38.7)"/>
    </g>
    <path d="M83.79,49.51H78V43.72h5.78a1.45,1.45,0,0,0,0-2.89H78V38.7a8,8,0,1,0,0,16V52.4h5.78a1.45,1.45,0,0,0,0-2.89Z" transform="translate(-20.07 -38.7)"/>
  </g>
</svg>