<svg id="Layer_1" data-name="Layer 1" xmlns="http://www.w3.org/2000/svg" viewBox="0 0 155.74 155.74">
  <defs>
    <style>
      .cls-1-climbing {
        fill: #8cc63f;
      }

      .cls-2-climbing {
        fill: #fff;
      }
    </style>
  </defs>
  <circle class="cls-1-climbing" cx="77.87" cy="77.87" r="77.87"/>
  <g>
    <rect class="cls-2-climbing" x="64.24" y="62.05" width="30.03" height="49.49" rx="12"/>
    <g>
      <rect class="cls-2-climbing" x="72.35" y="89.34" width="32.36" height="11.51" rx="5.76" transform="translate(-52.4 14.38) rotate(-20.41)"/>
      <rect class="cls-2-climbing" x="53.78" y="82.88" width="35.31" height="11.51" rx="5.76" transform="translate(14.97 175.53) rotate(-124.98)"/>
    </g>
    <rect class="cls-2-climbing" x="116.24" y="124.53" width="35.31" height="11.51" rx="5.76" transform="translate(79.11 292.22) rotate(-124.98)"/>
    <circle class="cls-2-climbing" cx="79.26" cy="47.63" r="9.96"/>
    <rect class="cls-2-climbing" x="100.03" y="70.91" width="46.12" height="12.57" rx="6" transform="translate(-36.26 109.57) rotate(-54.26)"/>
    <rect class="cls-2-climbing" x="100.57" y="117.91" width="33.08" height="12.51" rx="6.26" transform="translate(-60.75 26.17) rotate(-20.41)"/>
    <rect class="cls-2-climbing" x="65.45" y="135.42" width="44.03" height="12.57" rx="6" transform="translate(-102.2 142.72) rotate(-66.42)"/>
    <rect class="cls-2-climbing" x="77.1" y="15.71" width="6.13" height="16.34"/>
  </g>
</svg>
