<svg id="Layer_1" data-name="Layer 1" xmlns="http://www.w3.org/2000/svg" viewBox="0 0 55.53 55.53">
  <defs>
    <style>
      .cls-1-dance_background {
        fill: #b365ff;
      }
    </style>
  </defs>
  <g>
    <path class="cls-1-dance_background" d="M114.74,71.68a27.77,27.77,0,1,0,27.77,27.77A27.76,27.76,0,0,0,114.74,71.68Zm.53,8.16a3.92,3.92,0,0,1,3.9,3.92,3.93,3.93,0,1,1-7.85,0A3.91,3.91,0,0,1,115.27,79.84Zm-12.44,22a1.85,1.85,0,0,1-2-2.34,3.09,3.09,0,0,1,2.27-2.36,3.83,3.83,0,0,1,.5-.11l-.91-2.35-5,2,1.36,3.5a2.51,2.51,0,0,1-.45,2.61A2.78,2.78,0,0,1,96,104.05a1.86,1.86,0,0,1-1.46-2.6,3.08,3.08,0,0,1,2.33-2.13l.37-.1c-.57-1.5-1.13-3-1.7-4.45-.41-1.08-.21-1.54.89-2L101.07,91a1.21,1.21,0,0,1,1.83.81c.83,2.13,1.67,4.26,2.5,6.4A3,3,0,0,1,102.83,101.86Zm21.09,9.46c-.32,2.85-.57,5.71-.83,8.57a3.08,3.08,0,0,1-2.65,3,2.92,2.92,0,0,1-3.14-1.8,3.94,3.94,0,0,1-.22-1.73c.32-2.64.7-5.29,1.07-7.93a1.74,1.74,0,0,0-.33-1.35c-.9-1.27-1.78-2.57-2.66-3.87-.21-.31-.45-.54-.84-.38s-.39.48-.35.82c.42,3.15.83,6.3,1.25,9.46.15,1.18.32,2.36.45,3.55a3.06,3.06,0,0,1-6.07.71c-.42-3.81-.82-7.62-1.23-11.43-.17-1.57-.34-3.14-.46-4.29a8.25,8.25,0,0,1,1.09-4.47l1.49-2.62a1.88,1.88,0,0,0-.13-2.25c-1.39-1.87-2.78-3.73-4.14-5.63a7.56,7.56,0,0,1-.92-1.76c-.76-2.13-1.47-4.27-2.19-6.42a2.67,2.67,0,1,1,5.08-1.64c.5,1.55,1,3.1,1.45,4.66A10.3,10.3,0,0,0,111.41,88c1.21,1.61.72,1.39,2.75,1.41.9,0,1.8,0,2.7,0a1.52,1.52,0,0,0,1.35-.66c2.42-3.11,4.86-6.2,7.3-9.3a2.58,2.58,0,1,1,4.14,3.06c-1.27,1.68-2.57,3.34-3.86,5s-2.59,3.45-4,5.11a7.13,7.13,0,0,0-1.61,3.63c-.21,1.49-.53,3-.81,4.44a1.53,1.53,0,0,0,.23,1.19c1.08,1.63,2.1,3.3,3.22,4.9A6.16,6.16,0,0,1,123.92,111.32Zm6.73-13.88c-.38.14-.69-.06-.89-.58A4.29,4.29,0,0,0,126.38,94h-.14s0,0-.08.05.09.27.15.4q1.18,3,2.4,6a2.4,2.4,0,0,0,.21.46,2.27,2.27,0,0,1-.16,2.77,2.8,2.8,0,0,1-2.7,1.33,1.8,1.8,0,0,1-1.52-2.17,3.22,3.22,0,0,1,2.68-2.63c-.3-.77-.6-1.52-.91-2.28-.56-1.4-1.12-2.79-1.67-4.19-.29-.7,0-1.07.71-1.1A5.72,5.72,0,0,1,131,96.42C131.15,96.93,131,97.29,130.65,97.44Z" transform="translate(-86.98 -71.68)"/>
    <path class="cls-1-dance_background" d="M103.61,98.38A1.83,1.83,0,0,0,102,100c0,.41.18.61.58.61A1.83,1.83,0,0,0,104.24,99,.54.54,0,0,0,103.61,98.38Z" transform="translate(-86.98 -71.68)"/>
    <path class="cls-1-dance_background" d="M96.69,94.09c.19.5.36,1,.55,1.44l4.94-2c-.18-.48-.34-.9-.53-1.38Z" transform="translate(-86.98 -71.68)"/>
    <path class="cls-1-dance_background" d="M125.81,103a.57.57,0,0,0,.58.71A1.86,1.86,0,0,0,128,102.1a.57.57,0,0,0-.73-.56A1.91,1.91,0,0,0,125.81,103Z" transform="translate(-86.98 -71.68)"/>
    <path class="cls-1-dance_background" d="M95.72,102.15a.56.56,0,0,0,.67.62,1.92,1.92,0,0,0,1.55-1.51.57.57,0,0,0-.6-.7A1.88,1.88,0,0,0,95.72,102.15Z" transform="translate(-86.98 -71.68)"/>
  </g>
</svg>
