<svg id="Layer_1" data-name="Layer 1" xmlns="http://www.w3.org/2000/svg" viewBox="0 0 124.85 124.85">
  <defs>
    <style>
      .cls-1-dance {
        fill: #b365ff;
      }

      .cls-2-dance {
        fill: #fff;
      }
    </style>
  </defs>
  <circle class="cls-1-dance" cx="62.43" cy="62.43" r="62.43"/>
  <g>
    <g>
      <path class="cls-2-dance" d="M80.76,149.59c-4.17-1.08-5.63-5.17-3.44-9,2.37-4.2,4.34-8.63,6.58-12.9a6.54,6.54,0,0,0,.32-4.79c-.48-2.16-1.17-4.29-1.63-6.46s-.84-4.42-1.11-6.65c-.6-5-1.11-10.07-1.67-15.11,0-.23-.09-.45-.15-.78l-3,1.94c-.76.5-1.51,1-2.28,1.49a7.3,7.3,0,0,1-9-.36c-3.2-2.51-6.25-5.21-9.35-7.84a22.33,22.33,0,0,1-1.68-1.69,5,5,0,0,1,7.12-7c2.82,2.64,5.68,5.24,8.51,7.85,2.13-1.4,4.15-2.6,6-4a15.36,15.36,0,0,1,8.17-3.06,37.37,37.37,0,0,1,11.37.47,8.79,8.79,0,0,1,2.63,1.14c2.66,1.66,5.26,3.41,8,5.23,2-1.73,4.07-3.48,6.1-5.28.88-.78,1.66-1.65,2.51-2.47a5,5,0,0,1,7.14,7,71.74,71.74,0,0,1-11.37,9.79,7.22,7.22,0,0,1-8.34.31c-.67-.39-1.33-.81-2.14-1.31.09,1.8.16,3.48.25,5.16.1,2-.19,4,.42,5.84s2.14,3.25,3.23,4.88a81.61,81.61,0,0,1,6.34,11.33,8.05,8.05,0,0,1,.39,6.13c-1.66,5.24-3.23,10.51-4.85,15.77A5.47,5.47,0,1,1,95.4,142c1.4-4.68,2.86-9.34,4.27-14a2.34,2.34,0,0,0,0-1.43,48.12,48.12,0,0,0-5.39-9.14c.3,1.58.55,3.18.92,4.74a14,14,0,0,1-1.54,10.41c-2.32,4.16-4.4,8.47-6.46,12.77-1,2.06-2.28,3.64-4.56,4.25Z" transform="translate(-29.94 -42.45)"/>
      <path class="cls-2-dance" d="M89.84,78.56a9.52,9.52,0,1,1,9.57-9.42A9.46,9.46,0,0,1,89.84,78.56Z" transform="translate(-29.94 -42.45)"/>
    </g>
    <path class="cls-2-dance" d="M56.67,119.34c-.05-.37-.09-.76-.15-1.14-.09-.57-.19-1.13-.28-1.69s-.22-1.3-.32-2-.16-1.12-.25-1.69-.18-1.06-.26-1.59-.17-1.13-.25-1.69L54.89,108c-.08-.54-.16-1.08-.26-1.62,0-.17.09-.21.19-.25.28-.12.58-.22.87-.34l1.67-.68,1.21-.47,1.62-.65,1.29-.51,1.21-.49,1.24-.5,1.29-.52,1.28-.51.39-.15c.07.42.14.82.2,1.22.11.67.21,1.33.31,2s.2,1.32.31,2,.17,1.06.25,1.59.17,1.14.26,1.72l.33,1.94c.1.62.19,1.24.28,1.86.13.84.19,1.69.4,2.5a2.61,2.61,0,0,1-1.07,2.8,3.58,3.58,0,0,1-1.94.87A2.12,2.12,0,0,1,64,119a1.48,1.48,0,0,1-.23-1,3,3,0,0,1,1.23-2,3.84,3.84,0,0,1,2.19-.85c.31,0,.32,0,.27-.33-.11-.75-.24-1.49-.36-2.24s-.19-1.3-.29-2-.21-1.29-.32-1.94-.19-1.32-.3-2c0-.24-.08-.49-.13-.78l-9.33,4.33.3,1.86c.11.73.22,1.47.34,2.2s.22,1.34.32,2,.19,1.31.3,2c.15,1,.33,1.91.46,2.87a2.75,2.75,0,0,1-.5,2,5.08,5.08,0,0,1-1.19,1.17,4.58,4.58,0,0,1-2.2.84,2.61,2.61,0,0,1-2.25-.76,1.76,1.76,0,0,1-.46-1.48,3.59,3.59,0,0,1,1.48-2.44,4.74,4.74,0,0,1,2.34-1A7.79,7.79,0,0,1,56.67,119.34Z" transform="translate(-29.94 -42.45)"/>
    <path class="cls-2-dance" d="M123,103l5.13-18.79,1.75.47,1.35.38c.19,0,.22.1.16.28a8.46,8.46,0,0,0-.23.9,18.39,18.39,0,0,1,3.5,2.3,7.16,7.16,0,0,1,2.11,2.68,4.64,4.64,0,0,1-.52,4.38,12.91,12.91,0,0,1-2.37,2.74,13.51,13.51,0,0,1-1.57,1.23c.21-.61.43-1.23.63-1.85a15.45,15.45,0,0,0,.7-3.08,3.07,3.07,0,0,0-1.71-3.23c-.62-.34-1.28-.59-1.95-.89-.27,1-.52,1.92-.78,2.84l-1.14,4.17-1.14,4.22c-.39,1.41-.77,2.82-1.16,4.23a4.81,4.81,0,0,1-.64,1.66,5.3,5.3,0,0,1-2.53,1.84,6.63,6.63,0,0,1-5-.12,3.57,3.57,0,0,1-2-1.86,2.7,2.7,0,0,1,.26-2.7,5.47,5.47,0,0,1,4.25-2.4,4.38,4.38,0,0,1,2.54.42Z" transform="translate(-29.94 -42.45)"/>
  </g>
</svg>
