<svg id="Layer_1" data-name="Layer 1" xmlns="http://www.w3.org/2000/svg" viewBox="0 0 58.79 58.75">
  <defs>
    <style>
      .cls-1-dance {
        fill: #ed1c24;
      }
    </style>
  </defs>
  <g>
    <path class="cls-1-dance" d="M105.46,100.87c-1.81-.63-3.58-1.29-5.38-1.87a3.28,3.28,0,0,1-2.51-3.08c-.26-2.73-.62-5.46-.9-8.2a3,3,0,0,1,2.66-3.41,3.05,3.05,0,0,1,3.2,2.93c.22,2.11.47,4.21.72,6.32,0,.15.1.39.21.43.83.32,1.68.59,2.65.93a6,6,0,0,1-.11-5.19A5.72,5.72,0,0,1,108.66,87a5.87,5.87,0,0,1,7.14,9h2.39v-.61c0-4,0-8,0-12a2.94,2.94,0,1,1,5.87-.15c0,4.36,0,8.73,0,13.09a5.8,5.8,0,0,1-5.59,5.58c-.69,0-1.39,0-2.08,0a1,1,0,0,1-1.11-1c0-.6.43-1,1.14-1s1.23,0,1.84,0a3.88,3.88,0,0,0,3.86-3.86c0-4.2,0-8.41,0-12.61,0-.7-.4-1.16-1-1.14s-1,.48-1,1.19V95.65c0,1.63-.72,2.36-2.34,2.36h-4.1c-.84,0-1.23-.22-1.37-.76a1.28,1.28,0,0,1,.77-1.65,3.92,3.92,0,1,0-3.65-.06c.42.23.83.43.89,1,.15,1.18-.79,1.84-1.94,1.39l-4.72-1.81a7.08,7.08,0,0,0-1.15-.39c-.87-.18-1.16-.74-1.24-1.57-.21-2.25-.48-4.5-.72-6.75,0-.06,0-.12,0-.18a1.07,1.07,0,0,0-1.1-.94,1,1,0,0,0-.84,1.16c.16,1.56.34,3.12.52,4.68.14,1.28.31,2.55.43,3.83a1.15,1.15,0,0,0,.88,1.1c2,.68,4,1.38,5.94,2.07.87.3,1,.51,1,1.41,0,2.7,0,5.39,0,8.08a1.64,1.64,0,0,1-.52,1.25c-1.61,1.59-3.19,3.21-4.81,4.79a1.78,1.78,0,0,0-.57,1.35c0,2.69,0,5.39,0,8.08a3.1,3.1,0,0,0,0,.43,1,1,0,0,0,1,.92,1,1,0,0,0,.91-1c0-.17,0-.33,0-.49,0-2.41,0-4.82,0-7.22a2,2,0,0,1,.48-1.18c1.73-1.79,3.48-3.56,5.26-5.29a2.41,2.41,0,0,1,1.18-.5,7.48,7.48,0,0,1,1.34,0c1.26,0,1.51.24,1.51,1.48V124.7c0,1.12,0,2.24,0,3.37a1.77,1.77,0,0,0,.1.65.91.91,0,0,0,1,.61.94.94,0,0,0,.82-.87,4.12,4.12,0,0,0,0-.61V105c0-.71.4-1.15,1-1.14s1,.44,1,1.17q0,11.63,0,23.25a2.94,2.94,0,1,1-5.87,0c0-5.26,0-10.52,0-15.78v-.72a1.07,1.07,0,0,0-1.22.36c-1.42,1.46-2.88,2.89-4.29,4.36a1.3,1.3,0,0,0-.35.84c0,2.3,0,4.6,0,6.91a2.92,2.92,0,0,1-2.93,3.15,3,3,0,0,1-2.94-3.15c0-2.8,0-5.59,0-8.39a3.25,3.25,0,0,1,1-2.46c1.5-1.5,3-3,4.48-4.52a1.42,1.42,0,0,0,.37-.89C105.47,105.63,105.46,103.26,105.46,100.87Z" transform="translate(-65.29 -72.55)"/>
    <path class="cls-1-dance" d="M88.82,104.8c0,2.47,0,4.87,0,7.28a1.09,1.09,0,0,0,.32.66q2.2,2.27,4.45,4.47a3.51,3.51,0,0,1,1.1,2.68c0,2.83,0,5.67,0,8.5a2.93,2.93,0,0,1-5.23,1.79,3.08,3.08,0,0,1-.64-1.94c0-2.3,0-4.61,0-6.91a1.57,1.57,0,0,0-.38-1c-1.41-1.47-2.87-2.89-4.29-4.36a1.08,1.08,0,0,0-1.19-.33v6.7a2.92,2.92,0,0,1-1.33,2.55c-2.93,2-5.85,3.93-8.81,5.86a2.89,2.89,0,0,1-4.08-.86,2.92,2.92,0,0,1,.92-4.07q3.47-2.34,7-4.64a.92.92,0,0,0,.46-.89c0-1.82,0-3.63,0-5.45,0-.77.37-1.22,1-1.21s1,.45,1,1.22c0,2.06,0,4.12,0,6.18a1.46,1.46,0,0,1-.72,1.37c-2.42,1.59-4.82,3.2-7.23,4.81a3,3,0,0,0-.54.39.89.89,0,0,0-.16,1.22.91.91,0,0,0,1.23.35,3.87,3.87,0,0,0,.47-.28c2.69-1.8,5.38-3.61,8.09-5.38A1.63,1.63,0,0,0,81,122c0-2.34,0-4.69,0-7,0-1,.34-1.19,1.28-1.31a4,4,0,0,1,3.88,1.59c1.26,1.47,2.7,2.78,4.08,4.14a1.73,1.73,0,0,1,.56,1.35c0,2.39,0,4.77,0,7.16a5,5,0,0,0,0,.55,1,1,0,0,0,1,.89,1,1,0,0,0,.94-.88,2.66,2.66,0,0,0,0-.49c0-2.67,0-5.34,0-8a1.73,1.73,0,0,0-.57-1.35c-1.61-1.59-3.19-3.21-4.8-4.8a1.63,1.63,0,0,1-.52-1.25c0-2.71,0-5.42,0-8.13,0-.87.16-1.09,1-1.38,2-.68,3.92-1.38,5.88-2a1.22,1.22,0,0,0,1-1.23,7.35,7.35,0,0,1,.12-1.15,1,1,0,0,1,1.11-.9.92.92,0,0,1,.84,1.07,12.1,12.1,0,0,1-.18,1.7,2.94,2.94,0,0,1-2.06,2.3c-1.75.6-3.5,1.22-5.25,1.83Z" transform="translate(-65.29 -72.55)"/>
    <path class="cls-1-dance" d="M78.67,100.11a5.88,5.88,0,0,1,7-9.28c2.76,1.44,3.64,4.11,2.56,7.91.88-.3,1.73-.57,2.55-.88.13,0,.23-.31.25-.48.26-2.17.5-4.34.74-6.5a2.94,2.94,0,0,1,3-2.66,1,1,0,0,1,1.13,1c0,.57-.4.95-1.08,1s-1,.32-1.09,1c-.27,2.41-.55,4.82-.8,7.23a1.19,1.19,0,0,1-.9,1.09c-1.72.58-3.43,1.18-5.14,1.77a16.36,16.36,0,0,1-1.75.59,1,1,0,0,1-1.16-.75,1.22,1.22,0,0,1,.63-1.56,3.81,3.81,0,0,0,2.26-3.37,3.91,3.91,0,1,0-5.76,3.24A1.33,1.33,0,0,1,82,100.9c-.06.62-.4,1.06-1,1A3.7,3.7,0,0,0,78.11,103c-1.2,1-2.46,2-3.67,3a1.56,1.56,0,0,1-1.31.34l-4.35-.67a2.2,2.2,0,0,0-.36,0,1,1,0,1,0-.21,1.91c1.45.22,2.92.34,4.34.68a3.3,3.3,0,0,0,3.47-1,6.08,6.08,0,0,1,1.39-1.09,1.35,1.35,0,0,1,1.06-.14,1.26,1.26,0,0,1,.53.92c.06,1.24,0,2.48,0,3.73a1,1,0,1,1-2,0c0-.54,0-1.09,0-1.76-.39.3-.67.53-.94.75a3.15,3.15,0,0,1-2.64.68c-1.78-.29-3.58-.55-5.37-.81a3,3,0,0,1-2.79-2.84,2.85,2.85,0,0,1,2.27-2.94,7.64,7.64,0,0,1,2.23.1c1,.11,2,.31,3,.42a1.24,1.24,0,0,0,.81-.23c1-.72,1.89-1.49,2.84-2.23C77.22,101.22,78,100.67,78.67,100.11Z" transform="translate(-65.29 -72.55)"/>
    <path class="cls-1-dance" d="M77,80.5V78.43H71.19c0,1,0,2,0,3a2.95,2.95,0,1,1-5.83-.67,3,3,0,0,1,3.46-2.27l.42.07V74.27c0-.25,0-.49,0-.74a1,1,0,0,1,1-1q3.92,0,7.83,0c.64,0,1,.43,1,1.15,0,2.47,0,4.94,0,7.4,0,.76,0,1.51,0,2.27a2.94,2.94,0,1,1-2.36-2.92Zm0-6H71.23v1.89H77Zm-7.81,6.8a1,1,0,1,0-.94,1A1,1,0,0,0,69.23,81.34Zm7.83,2a1,1,0,0,0-2-.08,1,1,0,1,0,2,.08Z" transform="translate(-65.29 -72.55)"/>
    <path class="cls-1-dance" d="M110.41,78.28l-2.47,3.87a3,3,0,0,1-3.06,1.49,2.85,2.85,0,0,1-2.34-2.36,3,3,0,0,1,1.54-3.08,2.84,2.84,0,0,1,3.33.47,1.87,1.87,0,0,1,.21.26c.15-.2.27-.35.37-.51,1.09-1.7,2.17-3.41,3.25-5.11.55-.86,1-1,1.81-.43,1.48.93,3,1.86,4.44,2.81.82.51.91,1,.41,1.77-.61,1-1.22,1.93-1.84,2.89a1,1,0,0,1-1.69.36l-3.77-2.39A.7.7,0,0,0,110.41,78.28ZM115.87,77l-3.3-2.11-1.06,1.66,3.29,2.1Zm-9.58,3.76a1,1,0,0,0-1-1,.94.94,0,0,0-1,1,1,1,0,0,0,.94,1A1,1,0,0,0,106.29,80.75Z" transform="translate(-65.29 -72.55)"/>
    <path class="cls-1-dance" d="M90.08,79.23l1.54-2.38c.42-.65,1-.83,1.48-.5s.57.9.16,1.55c-1,1.6-2,3.21-3.07,4.79a2.88,2.88,0,0,1-3.33,1.16,3,3,0,0,1-2-2.83,2.92,2.92,0,0,1,2.11-2.77A3,3,0,0,1,90.08,79.23Zm-1.36,1.88a.94.94,0,0,0-1-1,.92.92,0,0,0-.93.93,1,1,0,0,0,.94,1A1,1,0,0,0,88.72,81.11Z" transform="translate(-65.29 -72.55)"/>
    <path class="cls-1-dance" d="M99.58,77.45c0,.63,0,1.26,0,1.9a1,1,0,1,1-2,0c0-1.26,0-2.52,0-3.79a1,1,0,1,1,2,0C99.6,76.18,99.58,76.82,99.58,77.45Z" transform="translate(-65.29 -72.55)"/>
    <path class="cls-1-dance" d="M70.21,93.62c0,.47,0,.94,0,1.41a1,1,0,0,1-1,1,1,1,0,0,1-.95-1q0-1.44,0-2.88a1,1,0,1,1,1.94,0C70.23,92.64,70.21,93.13,70.21,93.62Z" transform="translate(-65.29 -72.55)"/>
    <path class="cls-1-dance" d="M83.91,75.49a1,1,0,0,1-1-1,1,1,0,1,1,1.94,0A1,1,0,0,1,83.91,75.49Z" transform="translate(-65.29 -72.55)"/>
    <path class="cls-1-dance" d="M89.79,88.2a1,1,0,1,1-1-1A1,1,0,0,1,89.79,88.2Z" transform="translate(-65.29 -72.55)"/>
  </g>
</svg>
