<svg id="Layer_1" data-name="Layer 1" xmlns="http://www.w3.org/2000/svg" viewBox="0 0 122.3 122.3">
  <defs>
    <style>
      .cls-1-diver {
        fill: #71c5f5;
      }

      .cls-2-diver {
        fill: #fff;
      }
    </style>
  </defs>
  <circle class="cls-1-diver" cx="61.15" cy="61.15" r="61.15"/>
  <g>
    <path class="cls-2-diver" d="M146.86,87.39a3.45,3.45,0,0,1-2.64,2.4,3.17,3.17,0,1,1,2.35-4.43l.29.68Z" transform="translate(-42.6 -51.03)"/>
    <path class="cls-2-diver" d="M73.42,102.79c-1-.05-1-.62-1-1.29a30,30,0,0,1,4.1-16.23,26,26,0,0,1,15-11.62c13.31-4.06,25.75-2.08,36.87,6.43a26.49,26.49,0,0,1,10.35,18.49,12.22,12.22,0,0,1,.09,1.34c.06,2.39-.08,4.81,1.27,7,1,5.59,1.7,11.19.48,16.85-.28,1.28-.29,2.63-.65,3.88a7.93,7.93,0,0,1-5.35,5.58,1.4,1.4,0,0,0-.91.95c-4,10.66-11.56,17.33-22.66,19.83a24.75,24.75,0,0,1-16.55-1.91,1.37,1.37,0,0,0-1.32.12c-7.79,3.54-15.52,3.52-22.94-.87-8.71-5.16-11.77-14.76-8-24.19a30.56,30.56,0,0,1,5-8.28,5.2,5.2,0,0,1,1.63-1.28,1.08,1.08,0,0,0,.69-1c.27-2.78.55-5.57,1-8.33A10.08,10.08,0,0,1,73.42,102.79Zm31.69,1q-12.17,0-24.32,0a6,6,0,0,0-5.58,3.41c-1.15,2.13-1.16,4.54-1.41,6.87a40.25,40.25,0,0,0,.51,10.28c.55,3.57,2.67,5.43,6.29,5.43,3.37,0,6.74,0,10.1,0a11.73,11.73,0,0,0,8.77-3.59,21.42,21.42,0,0,1,2.18-2,6.68,6.68,0,0,1,8.18.25,26.18,26.18,0,0,1,1.92,1.88,8.82,8.82,0,0,0,6.38,3.14c4.6.1,9.2.17,13.8.09,2.38,0,3.9-1.58,4.33-3.95.18-1,.27-2,.38-3a37.36,37.36,0,0,0,.5-5.35c-.12-2.93-.48-5.85-.86-8.76a4.81,4.81,0,0,0-3.71-4.21,13.08,13.08,0,0,0-3.39-.52C121.16,103.78,113.13,103.8,105.11,103.8ZM93.79,140.16A11.14,11.14,0,1,0,105,129.05,11.14,11.14,0,0,0,93.79,140.16ZM71.25,128.31c-1.69,3.3-2.57,6.53-1.35,10a10.88,10.88,0,0,0,5.84,6.18,15.33,15.33,0,0,0,10.19,1.1c-.6-.58-1.1-1.06-1.58-1.56A28.24,28.24,0,0,1,78,135a3.26,3.26,0,0,0-2.06-2.13A8.59,8.59,0,0,1,71.25,128.31Z" transform="translate(-42.6 -51.03)"/>
    <path class="cls-2-diver" d="M142.15,74.64a5.06,5.06,0,1,1-5.05-5A5.06,5.06,0,0,1,142.15,74.64Z" transform="translate(-42.6 -51.03)"/>
    <path class="cls-2-diver" d="M126.49,125.76a42.36,42.36,0,0,0,.09-18.31,2.45,2.45,0,0,1,2.38,1.3,17.82,17.82,0,0,1,1.45,4,18.05,18.05,0,0,1-.81,10.65A3.28,3.28,0,0,1,126.49,125.76Z" transform="translate(-42.6 -51.03)"/>
    <path class="cls-2-diver" d="M104.94,147.41a7.21,7.21,0,1,1,7.22-7.22A7.23,7.23,0,0,1,104.94,147.41Z" transform="translate(-42.6 -51.03)"/>
  </g>
</svg>
