<svg id="Layer_1" data-name="Layer 1" xmlns="http://www.w3.org/2000/svg" viewBox="0 0 115.47 115.45">
  <defs>
    <style>
      .cls-1 {
        fill: #ed1c24;
      }

      .cls-2 {
        fill: #dd1c24;
      }
    </style>
  </defs>
  <path class="cls-1" d="M148.18,95.59a54.33,54.33,0,1,1-.63-8.42,53.88,53.88,0,0,1,.63,8.42,1.5,1.5,0,0,0,3,0,57.68,57.68,0,1,0-.71,9,60.76,60.76,0,0,0,.71-9A1.5,1.5,0,0,0,148.18,95.59Z" transform="translate(-35.71 -37.85)"/>
  <g>
    <path class="cls-2" d="M50.69,98.49a47.91,47.91,0,0,1,1.25-5.06A19.37,19.37,0,0,1,69.28,80.69c.69,0,1.38,0,2.08,0,11.2,0,22.39,0,33.59,0A19,19,0,0,1,122,90.3a19.47,19.47,0,0,1-29.08,25,19.18,19.18,0,0,1-5.19-6.57,5.08,5.08,0,0,0-.38.56,19.44,19.44,0,0,1-32.18,3.37,19,19,0,0,1-4.35-9.93c0-.3-.11-.59-.17-.88ZM87.74,86.64v0c-5.66,0-11.33,0-17,0a15.33,15.33,0,0,0-3.39.29A13.57,13.57,0,1,0,82.27,106.3a15,15,0,0,0,1.46-6.1,4,4,0,0,1,8,0c0,.5.06,1,.12,1.49a13.54,13.54,0,0,0,27-.46,13.45,13.45,0,0,0-12.89-14.55C99.86,86.54,93.8,86.64,87.74,86.64Z" transform="translate(-35.71 -37.85)"/>
    <path class="cls-2" d="M136,93.14c0,4.44,0,8.89,0,13.33a26.9,26.9,0,0,1-7.85,19.39,26.19,26.19,0,0,1-15.56,7.79,31.82,31.82,0,0,1-3.9.28c-4.92,0-9.84,0-14.75,0a8.76,8.76,0,0,1-9-7.78,39,39,0,0,1-.06-6.49,2.83,2.83,0,0,1,2.85-2.52,2.8,2.8,0,0,1,2.94,2.4c.15,1.6.1,3.22.11,4.83,0,2.59,1,3.62,3.64,3.62,4.7,0,9.39,0,14.08,0a21.23,21.23,0,0,0,21.55-21.66q0-14.41,0-28.83a7.74,7.74,0,0,1,0-1.08,3,3,0,0,1,5.91.32c0,1.3,0,2.61,0,3.91Z" transform="translate(-35.71 -37.85)"/>
    <path class="cls-2" d="M108,59.43A5.94,5.94,0,1,1,102,65.36,6,6,0,0,1,108,59.43Zm3.94,5.89a3.95,3.95,0,1,0-3.93,4A4,4,0,0,0,111.9,65.32Z" transform="translate(-35.71 -37.85)"/>
    <path class="cls-2" d="M128.05,61.51a4.34,4.34,0,1,1-4.31-4.44A4.36,4.36,0,0,1,128.05,61.51Zm-2-.06a2.36,2.36,0,1,0-2.4,2.35A2.38,2.38,0,0,0,126.08,61.45Z" transform="translate(-35.71 -37.85)"/>
    <path class="cls-2" d="M119.65,79.54a4.34,4.34,0,0,1-4.22-4.37,4.34,4.34,0,1,1,8.68.16A4.32,4.32,0,0,1,119.65,79.54Zm2.52-4.33a2.39,2.39,0,1,0-2.4,2.38A2.43,2.43,0,0,0,122.17,75.21Z" transform="translate(-35.71 -37.85)"/>
    <path class="cls-2" d="M82.93,89,60.62,105.35C58,101,59.24,94.81,63.37,91.49a10.15,10.15,0,0,1,6.16-2.44C73.91,89,78.3,89,82.93,89Z" transform="translate(-35.71 -37.85)"/>
    <path class="cls-2" d="M64.28,109.55l17.94-13c-.21,1.07-.4,2.12-.64,3.16a1.19,1.19,0,0,1-.43.65q-6.87,5.06-13.78,10.08a1.19,1.19,0,0,1-1,.1A23.26,23.26,0,0,1,64.28,109.55Z" transform="translate(-35.71 -37.85)"/>
    <path class="cls-2" d="M69.68,111.21l11.49-8.42C80.1,108.22,74.36,111.9,69.68,111.21Z" transform="translate(-35.71 -37.85)"/>
  </g>
</svg>
