<svg id="Layer_1" data-name="Layer 1" xmlns="http://www.w3.org/2000/svg" viewBox="0 0 90.04 90.04">
  <defs>
    <style>
      .cls-1 {
        fill: #8cc63f;
      }

      .cls-2 {
        fill: #ed1c24;
      }
    </style>
  </defs>
  <circle class="cls-1" cx="45.02" cy="45.02" r="45.02"/>
  <g>
    <path class="cls-2" d="M102.3,88.66c.74-2,1.33-4,2.11-5.81a9.75,9.75,0,0,1,3.31-4.06,6.86,6.86,0,0,1,8.57.09,13.46,13.46,0,0,1,4.58,7.63c.18.67.3,1.36.46,2.16.43,0,.87,0,1.31,0a2.82,2.82,0,1,1,0,5.63c-.44,0-.88,0-1.1,0a52.72,52.72,0,0,1-2.11,5.78,12.49,12.49,0,0,1-2.79,3.63,6.87,6.87,0,0,1-9.71-.17,14.7,14.7,0,0,1-4.22-8.31l-.16-.87H68.08v.87c0,2.58,0,5.16,0,7.73,0,1.27-.45,1.73-1.71,1.74q-2.15,0-4.29,0c-1.26,0-1.7-.48-1.71-1.75,0-.59,0-1.18,0-1.77a1.3,1.3,0,0,1,1.35-1.31,8.46,8.46,0,0,1,1.51,0c.76.08.95-.22,1-.95s-.31-1-1-.89a10,10,0,0,1-1.34,0,1.34,1.34,0,0,1-1.48-1.45c0-.72,0-1.45,0-2.23l-.95-.06a2.82,2.82,0,0,1,.1-5.63H102.3Zm.09,1.11H60.1c-.23,0-.45,0-.68,0a1.7,1.7,0,0,0,0,3.4,7.93,7.93,0,0,0,1.09,0c.74,0,1,.3,1,1s0,1.4,0,2.1c0,.5.16.72.68.69s1.17,0,1.76,0a1.27,1.27,0,0,1,1.32,1.33c0,.37,0,.73,0,1.1a1.33,1.33,0,0,1-1.5,1.5H62.05c-.45,0-.65.21-.56.61.15.68-.49,1.85.35,2a33.3,33.3,0,0,0,5.1.07V94.31c-.82,0-1.57,0-2.33,0-.5,0-1.32.26-1.3-.58s.8-.52,1.29-.52h37.79Zm18,1.75c0-.33,0-.67,0-1-.23-3.63-1.15-7-3.67-9.78a6,6,0,0,0-5.93-2.18,7.09,7.09,0,0,0-4.26,3,16.18,16.18,0,0,0-3,10.19,16,16,0,0,0,2.93,9.64c3.15,4.29,7.9,4.29,11,0A16.31,16.31,0,0,0,120.38,91.52Zm1.08,1.63c1,0,2.08.29,2.74-.77a1.61,1.61,0,0,0-.06-1.89c-.69-1-1.7-.72-2.68-.67Z" transform="translate(-46.11 -47.8)"/>
    <path class="cls-2" d="M83.12,117.71l-4.56-1.33c-.91-.27-1.82-.57-2.74-.79a1,1,0,0,1-.86-1.1c0-5.94,0-11.88,0-17.82,0-.44,0-1,.58-.88.19,0,.46.57.46.89,0,5.63,0,11.26,0,16.9a1.08,1.08,0,0,0,1,1.24c6.4,1.82,12.8,3.68,19.2,5.53,1.13.32,1.21.26,1.21-.9q0-11.22,0-22.45c0-.48-.21-1.25.59-1.22s.51.75.51,1.22c0,5.44,0,10.87,0,16.31v1h4.6v-9.52a1.39,1.39,0,0,1,0-.58,4.41,4.41,0,0,1,.51-.65c.19.2.5.39.54.62a10.53,10.53,0,0,1,0,1.59c0,2.89,0,5.77,0,8.66,0,.75-.26,1.07-1,1.05-1.51,0-3,0-4.61,0v2.36h6.62c1.16,0,1.38-.22,1.38-1.36q0-4.5,0-9a1.85,1.85,0,0,1,0-.67c.08-.2.35-.5.45-.48s.39.31.56.5,0,.16,0,.24c0,3.31,0,6.62,0,9.92a1.81,1.81,0,0,1-1.93,1.89c-2,0-4.09,0-6.13,0h-1c0,.32,0,.59-.06.86,0,1.45-.89,2.08-2.28,1.69-2.69-.77-5.38-1.56-8.07-2.32a5.89,5.89,0,0,0-1.57-.22c-4.2,0-8.41,0-12.61,0-1.8,0-2.46-.64-2.46-2.41V96.84a1.77,1.77,0,0,1,.06-.66c.08-.18.31-.42.44-.41a.78.78,0,0,1,.55.4,2.27,2.27,0,0,1,0,.83q0,9.75,0,19.5c0,1.19.17,1.36,1.36,1.36h9.12Z" transform="translate(-46.11 -47.8)"/>
    <path class="cls-2" d="M76,68.75V85.89a1.86,1.86,0,0,1,0,.67,3.06,3.06,0,0,1-.48.67c-.19-.24-.39-.46-.55-.71-.06-.1,0-.27,0-.41V68.62c0-1.08.06-1.14,1.15-1.14H103c1.06,0,1.16.09,1.16,1.14v9.67a1.6,1.6,0,0,1-.06.66c-.08.17-.31.41-.45.39a.78.78,0,0,1-.54-.4,1.79,1.79,0,0,1,0-.74V68.65h-22l0,.08c1,.23,2,.47,2.93.69l12.68,2.89c1.44.33,1.77.74,1.77,2.19V86a1.64,1.64,0,0,1,0,.67,2.51,2.51,0,0,1-.54.54,3,3,0,0,1-.51-.57,1.65,1.65,0,0,1,0-.67c0-3.81,0-7.62,0-11.43a1,1,0,0,0-1-1.23L76.84,68.89A7.81,7.81,0,0,0,76,68.75Z" transform="translate(-46.11 -47.8)"/>
    <path class="cls-2" d="M89.62,64.05h15.64c1.74,0,2.36.63,2.36,2.39,0,3,0,6,0,9.08,0,.17.06.37,0,.5a5.21,5.21,0,0,1-.54.62,2.65,2.65,0,0,1-.48-.59,1.81,1.81,0,0,1,0-.66q0-4.45,0-8.91c0-1.15-.22-1.38-1.37-1.38H73.92c-1.11,0-1.31.2-1.31,1.33V86.18c0,.44.07,1-.56,1s-.55-.6-.55-1V66.34c0-1.61.71-2.29,2.32-2.29Z" transform="translate(-46.11 -47.8)"/>
    <path class="cls-2" d="M94,97.4a4.38,4.38,0,0,1,0-1.09c0-.22.32-.38.5-.57.18.17.51.34.53.53a13.24,13.24,0,0,1,0,2.27c0,.18-.34.34-.53.51-.17-.19-.44-.35-.5-.57A4.85,4.85,0,0,1,94,97.4Z" transform="translate(-46.11 -47.8)"/>
    <path class="cls-2" d="M111.92,82.2a3.7,3.7,0,0,1,3.74,4.27c-.09.67.12.89.66,1.18a4.33,4.33,0,0,1,0,7.69.9.9,0,0,0-.61,1.13,3.76,3.76,0,1,1-7.41-.17.67.67,0,0,0-.43-.85,4.35,4.35,0,0,1,0-7.93c.53-.25.48-.56.41-1A3.73,3.73,0,0,1,111.92,82.2Zm5.64,9.25a3.29,3.29,0,0,0-2-3c-1-.46-1.18-.85-1-1.85a2.59,2.59,0,0,0-1.11-2.86,2.51,2.51,0,0,0-2.92-.06,2.63,2.63,0,0,0-1.23,2.82c.17,1.23.06,1.43-1.09,2a3.21,3.21,0,0,0-1.78,2.21,3.26,3.26,0,0,0,1.91,3.79c1,.47,1.12.8,1,1.85a5,5,0,0,0,0,.67,2.69,2.69,0,1,0,5.34-.49c-.22-1.28-.11-1.47,1.08-2.09A3.3,3.3,0,0,0,117.56,91.45Z" transform="translate(-46.11 -47.8)"/>
  </g>
</svg>
