<svg id="Layer_1" data-name="Layer 1" xmlns="http://www.w3.org/2000/svg" viewBox="0 0 50.89 50.89">
  <defs>
    <style>
      .cls-1 {
        fill: #71c5f5;
      }

      .cls-2 {
        fill: #ed1c24;
      }
    </style>
  </defs>
  <circle class="cls-1" cx="25.45" cy="25.45" r="25.45"/>
  <g>
    <path class="cls-2" d="M100.23,80a21.56,21.56,0,0,1,4.43,5.37,27.35,27.35,0,0,1,3.87,11.84,29.43,29.43,0,0,1-.4,8.43,2.82,2.82,0,0,1-.07.31l0,.19-1.15-.21.85.86c.4.4.75,1,1.24,1.16a3.59,3.59,0,0,0,1.7,0,2.83,2.83,0,0,1,2.75,1.13c.63.77,1.42,1.41,2.11,2.14a3,3,0,0,1-1.54,5,2.81,2.81,0,0,1-2.65-.69c-1-1-2.08-2-3.09-3.1a1,1,0,0,1-.23-.67c0-.86,0-1.72,0-2.58a.77.77,0,0,0-.18-.48L93.47,94.42a1.52,1.52,0,0,0-.21-.19,28.21,28.21,0,0,0-.42,9.15,25.69,25.69,0,0,0,7.17,15,25,25,0,0,0,6-9.94l1.32.42c-.42,1.06-.79,2.09-1.25,3.1a24.73,24.73,0,0,1-5.5,7.7c-.44.42-.73.44-1.18,0a24.38,24.38,0,0,1-5.65-8.08,28,28,0,0,1-2.37-13.36c.1-1.46.32-2.91.49-4.41l1.13.2,0-.06a12.36,12.36,0,0,1-1.14-1.15A2.11,2.11,0,0,0,89.83,92a7.86,7.86,0,0,1-1.68,0,1.26,1.26,0,0,1-.72-.3c-1-.93-1.93-1.89-2.88-2.86a3,3,0,1,1,4.27-4.27c1,.94,1.89,1.9,2.85,2.84a1,1,0,0,1,.33.79c0,.86,0,1.72,0,2.58a.69.69,0,0,0,.19.48q7.15,7.19,14.34,14.35l.2.17A28.15,28.15,0,0,0,106.92,95,25.9,25.9,0,0,0,100,81.56a25.3,25.3,0,0,0-6,10l-1.34-.44c.55-1.31,1-2.6,1.64-3.83a24,24,0,0,1,5.15-7l.34-.31ZM90.66,90.66c0-.8,0-1.52,0-2.25a.5.5,0,0,0-.18-.32c-.86-.87-1.72-1.74-2.59-2.6a1.69,1.69,0,1,0-2.38,2.4c.85.86,1.71,1.71,2.57,2.56.09.09.21.2.32.2C89.13,90.67,89.87,90.66,90.66,90.66Zm18.67,18.67c0,.79,0,1.5,0,2.22a.69.69,0,0,0,.21.38c.84.85,1.67,1.69,2.52,2.52a1.68,1.68,0,1,0,2.39-2.37c-.84-.86-1.69-1.7-2.54-2.54a.62.62,0,0,0-.32-.2Z" transform="translate(-74.55 -74.55)"/>
    <path class="cls-2" d="M97.68,95.34,97,94.23a5.35,5.35,0,0,1,5-.51A6.36,6.36,0,0,1,105.93,99a7,7,0,0,1-.38,3.5c0,.12-.1.23-.17.4l-1.13-.5a16.86,16.86,0,0,0,.39-2,5.45,5.45,0,0,0-1.77-4.64,4.14,4.14,0,0,0-5-.59Z" transform="translate(-74.55 -74.55)"/>
    <path class="cls-2" d="M102.32,104.66l.7,1.08a5,5,0,0,1-2.58.9,6,6,0,0,1-6-4.25,7.26,7.26,0,0,1,.06-5c0-.11.1-.21.16-.35l1.12.49a15.41,15.41,0,0,0-.38,2,5.41,5.41,0,0,0,2,4.79,4.12,4.12,0,0,0,4.74.45Z" transform="translate(-74.55 -74.55)"/>
    <path class="cls-2" d="M102.37,113.65l-1.07-.79a11.9,11.9,0,0,0,2.2-5.52l1.31.16A13.18,13.18,0,0,1,102.37,113.65Z" transform="translate(-74.55 -74.55)"/>
    <path class="cls-2" d="M96.32,91.28l-1.15-.45a19.14,19.14,0,0,1,2.29-4.22l1,.72Z" transform="translate(-74.55 -74.55)"/>
    <path class="cls-2" d="M101,113.61l1,.91-1,1-1-.91Z" transform="translate(-74.55 -74.55)"/>
    <path class="cls-2" d="M99,84.32l1.09.77-.8,1.12-1.08-.77Z" transform="translate(-74.55 -74.55)"/>
  </g>
</svg>
