<svg id="Layer_1" data-name="Layer 1" xmlns="http://www.w3.org/2000/svg" viewBox="0 0 117.09 117.09">
  <defs>
    <style>
      .cls-1-klim {
        fill: #8cc63f;
      }

      .cls-2-klim {
        fill: #ed1c24;
      }
    </style>
  </defs>
  <circle class="cls-1-klim" cx="58.54" cy="58.54" r="58.54"/>
  <g>
    <path class="cls-2-klim" d="M112.3,109.59a8.72,8.72,0,0,0-1-.13H94.15V94.83l-.94.35-9.49,3.7a4.11,4.11,0,0,1-5.28-1.64q-4.57-6.85-9.11-13.75A4.09,4.09,0,1,1,76.16,79c2.32,3.46,4.62,7,6.92,10.42.16.24.34.47.52.74,4.66-1.82,9.27-3.64,13.91-5.41a8.37,8.37,0,0,1,2.58-.49c2.27-.08,4.56-.07,6.83,0a1.68,1.68,0,0,0,1.7-.91q6.59-10.59,13.23-21.13a3.87,3.87,0,0,1,4.39-1.89,4.09,4.09,0,0,1,3.11,3.58,4.55,4.55,0,0,1-.87,3c-5,8-10,16-15.11,24a6,6,0,0,0-1,3.54c.06,4.76,0,9.53,0,14.29,0,.3,0,.59-.06.88Z" transform="translate(-41.46 -41.47)"/>
    <path class="cls-2-klim" d="M112.3,109.61a5.66,5.66,0,0,1,.73-.47c2.7-1.26,5.46-2.41,8.1-3.79a4.78,4.78,0,0,1,6.64,3.06q2.37,9.18,4.6,18.4a4.67,4.67,0,0,1-3.56,5.6,4.74,4.74,0,0,1-5.76-3.45c-.93-3.54-1.79-7.1-2.68-10.66-.07-.28-.16-.55-.26-.9l-9.44,4.4c-1.15.54-2.28,1.11-3.45,1.61a10.48,10.48,0,0,1-6.51.24c-.27.6-.54,1.19-.8,1.78L89.38,149.54c-1.12,2.56-2.65,3.62-4.81,3.35a5.74,5.74,0,0,1-5-4.7,5.9,5.9,0,0,1,.31-3c4.66-10.8,9.39-21.56,14.1-32.33,0-.11.12-.2.2-.35h18.14v-2.89Z" transform="translate(-41.46 -41.47)"/>
    <path class="cls-2-klim" d="M94.75,75.42a7.27,7.27,0,1,1,7.17,7.25A7.19,7.19,0,0,1,94.75,75.42Z" transform="translate(-41.46 -41.47)"/>
    <path class="cls-2-klim" d="M105.24,49.34v17l-3.31-.6V49.34Z" transform="translate(-41.46 -41.47)"/>
  </g>
</svg>
