<svg class="svg--bulb" xmlns="http://www.w3.org/2000/svg" viewBox="0 0 143.32 145.95">
  <defs>
    <style>
      .cls-1 {
        fill: #ff0;
      }

      .cls-2 {
        fill: none;
        stroke: #000;
        stroke-miterlimit: 10;
        stroke-width: 3px;
      }
    </style>
  </defs>
  <g id="bulb">
    <g class="svg--bulb-ligth" id="ligth">
      <path class="cls-1" d="M138.81,82a38.81,38.81,0,1,0-63.65,29.81L80,130.38c1.7,6.6,7.24,12,12.31,12h15.46c5.07,0,10.61-5.4,12.31-12l4.8-18.61A38.71,38.71,0,0,0,138.81,82Z" transform="translate(-28.34 -13.28)"/>
    </g>
    <g id="lines" class="svg--bulb-lines">
      <rect y="61.37" width="20.53" height="3.49" rx="1.15"/>
      <rect x="43.31" y="30.18" width="20.53" height="3.49" rx="1.15" transform="translate(13.78 -42.65) rotate(48.63)"/>
      <rect x="87.99" y="21.8" width="20.53" height="3.49" rx="1.15" transform="translate(46.37 108.52) rotate(-90)"/>
      <rect x="33.7" y="116.8" width="20.53" height="3.49" rx="1.15" transform="translate(-81.72 24.59) rotate(-30)"/>
      <rect x="151.13" y="74.38" width="20.53" height="3.49" rx="1.15" transform="translate(294.45 138.97) rotate(-180)"/>
      <rect x="136.16" y="118.85" width="20.53" height="3.49" rx="1.15" transform="translate(124.37 296.9) rotate(-131.37)"/>
      <rect x="136.16" y="30.18" width="20.53" height="3.49" rx="1.15" transform="translate(249.08 -54.17) rotate(138.63)"/>
    </g>
    <g id="bulb-2" data-name="bulb">
      <path d="M100,47.15a34.81,34.81,0,0,1,22.28,61.55l-1,.82-.32,1.25-4.8,18.61c-1.33,5.15-5.55,9-8.44,9H92.27c-2.89,0-7.11-3.85-8.44-9L79,110.77l-.32-1.25-1-.82A34.81,34.81,0,0,1,100,47.15m0-4a38.8,38.8,0,0,0-24.84,68.62L80,130.38c1.7,6.6,7.24,12,12.31,12h15.46c5.07,0,10.61-5.4,12.31-12l4.8-18.61A38.8,38.8,0,0,0,100,43.15Z" transform="translate(-28.34 -13.28)"/>
      <path d="M73.68,72.92A31.07,31.07,0,0,1,84.17,58.67a25.05,25.05,0,0,1,15.07-4.61,31.45,31.45,0,0,1,9.82,1.9c1.82.64,2.61-2.26.8-2.9A31.54,31.54,0,0,0,91.3,52,28.46,28.46,0,0,0,76.46,62a39.36,39.36,0,0,0-5.67,10.15c-.7,1.8,2.2,2.58,2.89.8Z" transform="translate(-28.34 -13.28)"/>
    </g>
  </g>
  <g id="bulb_footer" class="svg--bulb-footer" data-name="bulb footer">
    <g>
      <ellipse class="cls-2" cx="71.66" cy="133.58" rx="9.15" ry="0.76"/>
      <ellipse class="cls-2" cx="71.66" cy="138.63" rx="7.96" ry="0.76"/>
      <ellipse class="cls-2" cx="71.66" cy="143.69" rx="6.61" ry="0.76"/>
    </g>
  </g>
</svg>
