<svg id="Layer_1" data-name="Layer 1" xmlns="http://www.w3.org/2000/svg" viewBox="0 0 77.28 78.3">
  <defs>
    <style>
      .cls-1 {
        fill: #71c5f5;
      }

      .cls-2 {
        fill: #ed1c24;
      }
    </style>
  </defs>
  <ellipse class="cls-1" cx="38.64" cy="39.15" rx="38.64" ry="39.15"/>
  <g>
    <path class="cls-2" d="M105.1,122.51a1.66,1.66,0,0,0-.31-.12,4.49,4.49,0,0,1-3.2-2.62c-1-2.32-1.94-4.65-2.91-7a2.34,2.34,0,0,0-.38-.69,2.61,2.61,0,0,1-.34.56q-3.21,3.23-6.44,6.44a4.07,4.07,0,0,1-.42.41,1.15,1.15,0,0,1-1.55-.07,1.16,1.16,0,0,1-.1-1.55,3.23,3.23,0,0,1,.44-.47c2.45-2.46,4.89-4.91,7.36-7.35a.94.94,0,0,0,.28-1q-.89-3.89-1.69-7.79a2.16,2.16,0,0,1,0-1,1.09,1.09,0,0,1,1.22-.71c.57.06.93.47,1.05,1.16.28,1.52.55,3,.85,4.56.15.78.37,1.55.58,2.41l.47-.45q6.93-6.93,13.85-13.83a1.26,1.26,0,0,0,.41-1,61.51,61.51,0,0,0-.64-8.89c0-.1,0-.19,0-.2L107.46,85v9.11c0,.18,0,.36,0,.53a1.18,1.18,0,0,1-1.18,1.2,1.15,1.15,0,0,1-1.16-1.23c0-2.05,0-4.11,0-6.17V84.86a17.55,17.55,0,0,1-6.85-1.94c-.19,1.73-.38,3.36-.54,5-.07.68-.09,1.37-.13,2,0,.85-.51,1.39-1.21,1.37a1.22,1.22,0,0,1-1.14-1.42,61.58,61.58,0,0,1,1.82-12.59,64.8,64.8,0,0,1,4.31-12,4.82,4.82,0,0,1,4.62-3,4.7,4.7,0,0,1,4.54,3.06,67.6,67.6,0,0,1,5.6,18.7c.26,2.11.4,4.24.61,6.47.42-.42.83-.82,1.21-1.24,0,0,0-.21,0-.31a5.5,5.5,0,0,1,.94-5.69c1.64-2.09,3.41-4.09,5.15-6.11A3.56,3.56,0,0,1,126.46,76a2.66,2.66,0,0,1,2.24.82L132,80.08a3,3,0,0,1,.5,3.94,5.49,5.49,0,0,1-1.07,1.24c-1.7,1.47-3.43,2.92-5.15,4.37A6.32,6.32,0,0,1,121,91.36a1.27,1.27,0,0,1-.51-.12c-.68-.41-1.11-.1-1.57.42-.61.69-1.31,1.29-1.93,2a1.73,1.73,0,0,0-.39.91c-.63,8.45-2.18,16.67-5.94,24.36-.89,1.82-2,3.2-4.06,3.61Zm5-8.05c2.43-5.74,3.35-11.75,4.08-17.92-.22.21-.37.33-.5.46l-3.41,3.41-9.5,9.51c-.15.15-.34.43-.3.57.41,1.28.86,2.54,1.32,3.86A8.19,8.19,0,0,1,110.05,114.46Zm2.13-38.07a11.42,11.42,0,0,1-12.41-.23c-.32,1.32-.59,2.57-.93,3.81-.12.45,0,.62.39.81a15.17,15.17,0,0,0,5.69,1.69,14.29,14.29,0,0,0,7.89-1.58.58.58,0,0,0,.28-.47C112.81,79.09,112.49,77.76,112.18,76.39Zm9.44,12.51.13.18A4.09,4.09,0,0,0,124.51,88L130,83.39a3.28,3.28,0,0,0,.4-.43.83.83,0,0,0-.11-1.27c-1-1-2-2-3-3a.85.85,0,0,0-1.28-.11,3.45,3.45,0,0,0-.55.53c-1,1.19-2,2.39-3,3.59-.62.73-1.25,1.45-1.82,2.22a3.37,3.37,0,0,0-.68,2.48l1.31-1.34a1.19,1.19,0,1,1,1.66,1.66C122.49,88.13,122.05,88.51,121.62,88.9ZM101.75,70.35c-.37,1-.7,2-1.07,3a.56.56,0,0,0,.26.77,8.86,8.86,0,0,0,6.22,1.63A8.25,8.25,0,0,0,111.37,74l-1.32-3.5A8.2,8.2,0,0,1,101.75,70.35Zm1-2.28a5.51,5.51,0,0,0,6.53.1A19.6,19.6,0,0,0,108,65.71a2.51,2.51,0,0,0-4.14.08A23.08,23.08,0,0,0,102.7,68.07Zm6.41,48.65a5.43,5.43,0,0,0-6.4-.09c.38.79.71,1.63,1.16,2.41a2.41,2.41,0,0,0,4.11,0C108.39,118.27,108.73,117.49,109.11,116.72Z" transform="translate(-70.46 -53.28)"/>
    <path class="cls-2" d="M97.6,95.49a1.15,1.15,0,0,1-1.16,1.15,1.17,1.17,0,1,1,0-2.34A1.15,1.15,0,0,1,97.6,95.49Z" transform="translate(-70.46 -53.28)"/>
  </g>
</svg>
