<svg id="Layer_1" data-name="Layer 1" xmlns="http://www.w3.org/2000/svg" viewBox="0 0 103.29 103.29">
  <defs>
    <style>
      .cls-1 {
        fill: #8cc63f;
      }

      .cls-2 {
        fill: #ed1c24;
      }
    </style>
  </defs>
  <circle class="cls-1" cx="51.65" cy="51.65" r="51.65"/>
  <path class="cls-2" d="M146.21,92.14c-.71,1.58-1.94,2.07-3.63,2.06-7.47-.06-15,0-22.42,0a7.6,7.6,0,0,1-1.07,0,1.3,1.3,0,0,1,0-2.57,6.37,6.37,0,0,1,1,0H135v-3H115c0,.31,0,.6,0,.89,0,4.28,0,8.56,0,12.85a1.11,1.11,0,0,0,.68,1.16,4,4,0,0,1,2.17,3.71q0,10.55,0,21.09a2.76,2.76,0,0,1-2.92,2.89c-.86,0-1.71,0-2.57,0a2.71,2.71,0,0,1-2.84-2.77q0-10.68,0-21.36a3.92,3.92,0,0,1,2.27-3.63.91.91,0,0,0,.58-1c0-1.76,0-3.53,0-5.35h-5.88c0,.83,0,1.64,0,2.45,0,2.11-1.08,3.17-3.16,3.18H96.52c0,.41,0,.75-.06,1.09a35,35,0,0,1-.15,4.59,6.94,6.94,0,0,1-7,5.7c-2.33,0-4.67,0-7,0a1,1,0,0,0-1.23.88c-1.42,4.87-2.89,9.72-4.35,14.58-.43,1.41-.68,1.61-2.11,1.61-2.22,0-4.44,0-6.65,0a4.16,4.16,0,0,1-4.19-5.58c2.14-7.21,4.32-14.41,6.48-21.61.11-.36.2-.73.35-1.24H58.71c-2.26,0-3.28-1-3.28-3.32,0-.71,0-1.41,0-2.12a2.74,2.74,0,0,1,2.73-2.89c1.29-.06,2.6-.05,3.89,0a1,1,0,0,0,1.22-.82c.86-2.44,1.8-4.87,2.72-7.29S68.18,83,70.76,83H96.64c0-1.5,0-2.91,0-4.32,0-.18-.41-.45-.66-.49a34.28,34.28,0,0,1-9.28-2.84A2.78,2.78,0,0,1,85.26,71c1.24-2.31,2.51-4.61,3.76-6.93a4.37,4.37,0,0,1,4.18-2.45c4.55,0,9.1,0,13.65,0,3.32,0,5.87,1.28,7.28,4.35A8.15,8.15,0,0,1,113,75c-1.67,2.12-4,2.83-6.6,3.16-.21,0-.42,0-.62.08s-.4.08-.67.14V83h6.05c2.59,0,3.14.39,4,2.85h1c8.83,0,17.67,0,26.5,0,1.7,0,2.92.5,3.61,2.09ZM103.72,97H74.58A5.35,5.35,0,0,1,73.52,97a1.1,1.1,0,0,1-1-1.26,2.22,2.22,0,0,1,.93-1.22,2.37,2.37,0,0,1,1.21-.12h36.44c.37,0,.74,0,1.18-.06,0-2.77,0-5.46,0-8.14,0-.62-.43-.52-.81-.52H70.54a1.7,1.7,0,0,0-2,1.37q-1.24,3.27-2.46,6.55a8.31,8.31,0,0,0-.23.84c.9,0,1.66,0,2.42,0a1.29,1.29,0,0,1,.19,2.54,3.9,3.9,0,0,1-1,.07H59.08c-.31,0-.63,0-.94,0V100h45.58Zm-21.83,5.82a1.14,1.14,0,0,0-.3-.1c-2.57,0-5.14,0-7.71,0a1,1,0,0,0-.67.61q-3.46,11.41-6.87,22.87c-.43,1.42.2,2.25,1.68,2.26,1.77,0,3.55,0,5.32,0,.75,0,1-.26,1.2-.92q3.54-11.92,7.12-23.82C81.75,103.46,81.81,103.15,81.89,102.83ZM92.58,74.66a31.57,31.57,0,0,0,14,.73,7.25,7.25,0,0,0,3.84-1.64,5.81,5.81,0,0,0,1.39-6.36c-.84-2.09-2.46-3.07-5.07-3.07s-5.08,0-7.62,0a1.25,1.25,0,0,0-1.31.75c-1.31,2.45-2.66,4.86-4,7.29Zm22.5,53.78a6.34,6.34,0,0,0,.06-.67q0-10.18,0-20.36c0-.32,0-.75-.17-.93-.39-.37-.92-.85-1.38-.84a2.23,2.23,0,0,0-1.34.91c-.2.23-.12.73-.12,1.11q0,9.91,0,19.82c0,.32,0,.63,0,1ZM93.7,102.77H88a7.15,7.15,0,0,0,.1,1.19c.34,1.31.7,2.62,1.09,3.91a1.38,1.38,0,0,1-.64,1.81,1.35,1.35,0,0,1-1.81-.78,3.36,3.36,0,0,1-.28-.65c-.37-1.61-.72-3.21-1.1-4.81a3.6,3.6,0,0,0-.35-.71,4,4,0,0,0-.48.63,10,10,0,0,0-.34,1.1c-.68,2.28-1.36,4.55-2,6.83,2.8,0,5.55.17,8.26-.06a3.55,3.55,0,0,0,3.2-3.23A39.55,39.55,0,0,0,93.7,102.77ZM90,73.87l5.27-9.55c-.83,0-1.45,0-2.07,0a1.78,1.78,0,0,0-1.83,1.1c-.4.79-.84,1.55-1.27,2.33l-2.69,5Zm53.53,17.6V88.54h-5.75v2.93Zm-41.22-8.53v-4.4h-2.9v4.4Z" transform="translate(-48.34 -46.89)"/>
</svg>
