<svg id="Layer_1" data-name="Layer 1" xmlns="http://www.w3.org/2000/svg" viewBox="0 0 96.34 96.34">
  <defs>
    <style>
      .cls-1-waves {
        fill: #71c5f5;
      }

      .cls-2-waves {
        fill: #fff;
      }
    </style>
  </defs>
  <circle class="cls-1-waves" cx="48.17" cy="48.17" r="48.17"/>
  <g>
    <path class="cls-2-waves" d="M55.76,138.18A15,15,0,0,1,57,136.89a22.43,22.43,0,0,1,5.92-3.78,9.85,9.85,0,0,1,8.62.27c1.17.59,2.27,1.35,3.42,2a37.18,37.18,0,0,0,4,2.08,9.07,9.07,0,0,0,8.43-.7c1.65-1,3.16-2.26,4.71-3.42,1.22-.9,2.37-1.88,3.61-2.75a11.61,11.61,0,0,1,12.14-1.11c1.45.65,2.82,1.52,4.22,2.3.75.43,1.46.92,2.22,1.33a7.79,7.79,0,0,0,7.72.18,52,52,0,0,0,4.51-2.94c.24-.16.43-.38.67-.53a1.48,1.48,0,0,1,2,.32,1.43,1.43,0,0,1-.06,2c-2.89,2.55-5.93,4.83-9.92,5.31a8.74,8.74,0,0,1-5.1-.94c-1.43-.73-2.76-1.65-4.18-2.39a33.25,33.25,0,0,0-4.4-2.07,8.23,8.23,0,0,0-7,.66,61.87,61.87,0,0,0-5.13,3.57c-1.59,1.15-3.11,2.4-4.75,3.49a10.21,10.21,0,0,1-4.92,1.66,2.17,2.17,0,0,0-.42.11H82.13a.82.82,0,0,0-.19-.09,17.87,17.87,0,0,1-8-3c-1-.65-2.06-1.32-3.14-1.89a8,8,0,0,0-7.27-.22,20.48,20.48,0,0,0-4.91,3.21c-1.21,1-2,.88-2.87-.45Z" transform="translate(-44.49 -66.28)"/>
    <path class="cls-2-waves" d="M55.76,97.29c.64-.61,1.23-1.27,1.91-1.82a20.64,20.64,0,0,1,5.39-3.28,9.7,9.7,0,0,1,8.35.29c1.37.69,2.62,1.59,4,2.31a32.67,32.67,0,0,0,4.41,2,8.21,8.21,0,0,0,7-.67,60.45,60.45,0,0,0,5.07-3.53c1.27-.94,2.47-2,3.76-2.89A11.69,11.69,0,0,1,108,88.67c1.33.6,2.58,1.38,3.85,2.1.77.43,1.5.94,2.28,1.38a8,8,0,0,0,8.17.14c1.58-.87,3-2,4.52-3a3,3,0,0,1,1.35-.52,1.5,1.5,0,0,1,1,2.52c-2.7,2.37-5.54,4.53-9.21,5.2a9.48,9.48,0,0,1-6.14-1c-1.17-.6-2.26-1.35-3.42-2a40.22,40.22,0,0,0-4.08-2.09A9,9,0,0,0,98,92c-1.7,1-3.24,2.3-4.84,3.49-1.23.92-2.4,1.91-3.66,2.79A11.55,11.55,0,0,1,77.6,99.43c-1.51-.66-2.92-1.55-4.36-2.35-.77-.44-1.51-.94-2.29-1.36a7.75,7.75,0,0,0-7.59-.18,35.55,35.55,0,0,0-4.61,3c-1.33,1-2,1-3-.28Z" transform="translate(-44.49 -66.28)"/>
    <path class="cls-2-waves" d="M55.76,111a10.57,10.57,0,0,1,1-1.12,23.23,23.23,0,0,1,6.14-4,9.85,9.85,0,0,1,8.62.26c1.26.63,2.42,1.45,3.66,2.13a32.51,32.51,0,0,0,3.91,2,8.92,8.92,0,0,0,8.16-.66c1.74-1.06,3.32-2.36,5-3.57,1.15-.86,2.25-1.8,3.42-2.63A11.71,11.71,0,0,1,108,102.27c1.37.63,2.66,1.43,4,2.18.86.48,1.68,1,2.54,1.49a7.62,7.62,0,0,0,7.39.16,52.25,52.25,0,0,0,4.7-3c.22-.14.4-.34.62-.49a1.51,1.51,0,0,1,2,.3,1.43,1.43,0,0,1,0,2c-2.92,2.58-6,4.9-10.06,5.34a9.16,9.16,0,0,1-5.09-1c-1.26-.63-2.44-1.43-3.68-2.11a36,36,0,0,0-4-2,8.94,8.94,0,0,0-8.24.58c-1.62,1-3.1,2.16-4.62,3.28-1.27,1-2.47,2-3.76,2.9a11.77,11.77,0,0,1-12.52,1.11c-1.33-.61-2.57-1.39-3.84-2.12-.81-.46-1.59-1-2.41-1.43a7.71,7.71,0,0,0-7.65-.17,37.54,37.54,0,0,0-4.66,3.08c-1.27.93-2,.88-2.9-.43Z" transform="translate(-44.49 -66.28)"/>
    <path class="cls-2-waves" d="M55.76,124.5A20.74,20.74,0,0,1,62,119.89a10.17,10.17,0,0,1,10.24.24c1.44.82,2.81,1.75,4.25,2.57a11,11,0,0,0,7.63,1.66,11.76,11.76,0,0,0,4.92-2.28c1.69-1.27,3.31-2.62,5-3.92.57-.45,1.15-.87,1.75-1.27a11.65,11.65,0,0,1,12-1.09c1.46.64,2.83,1.5,4.23,2.28.9.51,1.76,1.09,2.67,1.56a7.51,7.51,0,0,0,7,.18,47.53,47.53,0,0,0,4.5-2.8c.35-.22.62-.54,1-.78a1.53,1.53,0,0,1,2.08.23,1.43,1.43,0,0,1,0,2c-2.73,2.42-5.63,4.59-9.36,5.22a9,9,0,0,1-5.67-.87c-1.3-.66-2.52-1.47-3.8-2.18a36.12,36.12,0,0,0-3.75-2,9.17,9.17,0,0,0-8.57.61c-1.69,1-3.23,2.31-4.83,3.5-1.17.87-2.29,1.83-3.48,2.67a11.71,11.71,0,0,1-12.27,1.11c-1.39-.63-2.7-1.46-4-2.21-.83-.47-1.63-1-2.47-1.47a7.68,7.68,0,0,0-7.46-.16,35.83,35.83,0,0,0-4.68,3.06c-1.33,1-2,1-3-.3Z" transform="translate(-44.49 -66.28)"/>
  </g>
</svg>
