<svg id="Layer_1" data-name="Layer 1" xmlns="http://www.w3.org/2000/svg" viewBox="0 0 68.16 68.17">
  <defs>
    <style>
      .cls-1 {
        fill: #ed1c24;
      }
    </style>
  </defs>
  <path class="cls-1" d="M129.82,89a31,31,0,1,1-.36-4.79,32.08,32.08,0,0,1,.36,4.79,1.5,1.5,0,0,0,3,0,34.17,34.17,0,1,0-.44,5.42,36.35,36.35,0,0,0,.44-5.42A1.5,1.5,0,0,0,129.82,89Z" transform="translate(-64.66 -54.88)"/>
  <g>
    <path class="cls-1" d="M123.89,79.62a9.06,9.06,0,0,1-5.38-1.71,8.2,8.2,0,0,0-3.07-1.63,6.43,6.43,0,0,0-5.08.9,16.54,16.54,0,0,1-3.28,1.88,8.93,8.93,0,0,1-8.25-1,20.37,20.37,0,0,0-2-1.26,6.19,6.19,0,0,0-6.47.33,17.84,17.84,0,0,1-3.33,1.9,8.89,8.89,0,0,1-8.2-1c-.62-.41-1.24-.83-1.87-1.22a5.7,5.7,0,0,0-3-.79V73.19a8.27,8.27,0,0,1,4.33,1.07c.88.52,1.69,1.17,2.59,1.65a6.19,6.19,0,0,0,6.64-.32,16.49,16.49,0,0,1,3.28-1.87,8.92,8.92,0,0,1,8.16,1A20.17,20.17,0,0,0,101,76a6.16,6.16,0,0,0,6.42-.32,18.59,18.59,0,0,1,3.37-1.92,8.88,8.88,0,0,1,8.16.94l1.21.82a6,6,0,0,0,3.73,1.2Z" transform="translate(-64.66 -54.88)"/>
    <path class="cls-1" d="M123.89,96.88a9.05,9.05,0,0,1-5.42-1.74,8,8,0,0,0-3-1.6,6.47,6.47,0,0,0-5.08.9,16.54,16.54,0,0,1-3.28,1.88,8.93,8.93,0,0,1-8.25-1,20.08,20.08,0,0,0-2-1.28,6.16,6.16,0,0,0-6.38.32,18.31,18.31,0,0,1-3.37,1.93,8.88,8.88,0,0,1-8.2-1c-.3-.19-.6-.39-.89-.6a6.23,6.23,0,0,0-4-1.39V90.46a8.17,8.17,0,0,1,4.33,1.07c.91.53,1.74,1.2,2.67,1.68a6.13,6.13,0,0,0,6.51-.34A17.38,17.38,0,0,1,90.79,91,8.91,8.91,0,0,1,99,92a19.34,19.34,0,0,0,2,1.26,6.12,6.12,0,0,0,6.42-.33,14.07,14.07,0,0,1,3.45-2,9.21,9.21,0,0,1,8.08,1c.6.39,1.18.8,1.79,1.19a5.74,5.74,0,0,0,3.15.84Z" transform="translate(-64.66 -54.88)"/>
    <path class="cls-1" d="M123.89,105.47A8.22,8.22,0,0,1,119,104.1c-.67-.44-1.3-.93-2-1.31a6.11,6.11,0,0,0-6.63.32A13.79,13.79,0,0,1,107,105a9.23,9.23,0,0,1-8.07-1,23.52,23.52,0,0,0-2-1.28,6.09,6.09,0,0,0-6.42.3,14.48,14.48,0,0,1-3.5,2,9.2,9.2,0,0,1-8-1c-.65-.42-1.3-.86-2-1.27a5.08,5.08,0,0,0-2.55-.74,3.71,3.71,0,0,1-.44,0V99.1a8.38,8.38,0,0,1,4.9,1.38A24.9,24.9,0,0,0,81,101.85a6.1,6.1,0,0,0,6.46-.33,13.81,13.81,0,0,1,3.46-2,9.21,9.21,0,0,1,8,1,23.63,23.63,0,0,0,2,1.29,6.19,6.19,0,0,0,6.47-.3,17.82,17.82,0,0,1,3.41-1.93,8.85,8.85,0,0,1,8.07.93c.76.49,1.52,1,2.31,1.45a4.58,4.58,0,0,0,2.67.55Z" transform="translate(-64.66 -54.88)"/>
    <path class="cls-1" d="M123.89,88.2A8.07,8.07,0,0,1,119,86.84a23.58,23.58,0,0,0-2-1.3,6.21,6.21,0,0,0-6.64.29A16.42,16.42,0,0,1,107,87.71a8.9,8.9,0,0,1-8.11-.94A21.75,21.75,0,0,0,97,85.52a6.22,6.22,0,0,0-6.6.3A16.8,16.8,0,0,1,87,87.72a8.88,8.88,0,0,1-8-.92c-.65-.42-1.29-.86-1.95-1.28a5.13,5.13,0,0,0-2.64-.76,3,3,0,0,1-.39-.05V81.85a8.19,8.19,0,0,1,4.89,1.37c.71.46,1.38,1,2.13,1.37a6.11,6.11,0,0,0,6.43-.31,14.43,14.43,0,0,1,3.45-2,9.22,9.22,0,0,1,8.07,1,23.63,23.63,0,0,0,2,1.29,6.21,6.21,0,0,0,6.47-.3,17.6,17.6,0,0,1,3.42-1.93,8.86,8.86,0,0,1,8,.9c.81.52,1.6,1.06,2.43,1.53a4.46,4.46,0,0,0,2.59.5Z" transform="translate(-64.66 -54.88)"/>
  </g>
</svg>
