<svg id="Layer_1" data-name="Layer 1" xmlns="http://www.w3.org/2000/svg" viewBox="0 0 69.55 84.96">
  <defs>
    <style>
      .cls-1-windmill {
        fill: #ccc;
      }

      .cls-2-windmill {
        fill: #f15a24;
      }
    </style>
  </defs>
  <g>
    <path class="cls-1-windmill" d="M134.91,115c-.74,1.28-1.28,1.48-2.7.88q-10.52-4.4-21-8.82c-1.57-.67-3-1.53-3.63-3.28-1.16-3.34,1.22-6.05,4.66-5.81,1.86.13,3.28,1.2,4.69,2.28l13.27,10.18c1.19.9,2.4,1.78,3.54,2.74a9.4,9.4,0,0,1,1.2,1.5Z" transform="translate(-65.36 -57.59)"/>
    <path class="cls-1-windmill" d="M95.56,82.34c.3-2.19.72-4.94,1.06-7.71.52-4.1,1-8.22,1.48-12.33.13-1.1.32-2.19.52-3.27a1.64,1.64,0,0,1,1.49-1.44A1.48,1.48,0,0,1,101.57,59c.53,3.52,1.05,7,1.49,10.57.52,4.11,1,8.23,1.43,12.34.18,1.66.27,3.31-.82,4.77a4.24,4.24,0,0,1-7,0A6.63,6.63,0,0,1,95.56,82.34Z" transform="translate(-65.36 -57.59)"/>
    <path class="cls-1-windmill" d="M92.6,101.47a5.22,5.22,0,0,1-2.53,4.39,40.32,40.32,0,0,1-4.24,2q-7.65,3.41-15.33,6.8c-.88.39-1.77.77-2.66,1.12-1.06.41-1.88.24-2.3-.45s-.12-1.52.74-2.23c2-1.61,4-3.23,6-4.82q6.15-4.83,12.33-9.63c1.77-1.38,3.71-2,5.84-.82A3.94,3.94,0,0,1,92.6,101.47Z" transform="translate(-65.36 -57.59)"/>
  </g>
  <g>
    <path class="cls-2-windmill" d="M80,142.56a3.83,3.83,0,0,1-.31-1c0-1.19,0-2.38,0-3.57s.07-1.29,1.25-1.29H92.1l.85-5.85q1.36-9.34,2.73-18.68c.26-1.77.52-3.55.77-5.32.17-1.26.44-1.5,1.7-1.51s2.26,0,3.39,0a1.24,1.24,0,0,1,1.39,1.2q1.54,9.25,3.12,18.52.93,5.49,1.84,11c.08.53.31.65.81.65,3.51,0,7,0,10.53,0,1.19,0,1.25.07,1.25,1.29s0,2.38,0,3.57a4.31,4.31,0,0,1-.32,1Z" transform="translate(-65.36 -57.59)"/>
    <path class="cls-2-windmill" d="M100,102.75a6.08,6.08,0,1,1,6.15-6A6.06,6.06,0,0,1,100,102.75Z" transform="translate(-65.36 -57.59)"/>
  </g>
</svg>
